<svg xmlns="http://www.w3.org/2000/svg" viewBox="0 0 800 1040" fill="none">
  <rect width="800" height="1040" fill="#1c1915"/>
  <rect x="48" y="48" width="704" height="944" fill="#241f1a"/>
  <rect x="96" y="96" width="460" height="620" fill="#f3efe6"/>
  <rect x="96" y="96" width="16" height="620" fill="#9c4a28"/>
  <rect x="148" y="148" width="150" height="190" fill="#e7dfd2"/>
  <rect x="148" y="148" width="150" height="10" fill="#9c4a28"/>
  <rect x="318" y="148" width="190" height="120" fill="#1c1915"/>
  <rect x="338" y="188" width="110" height="6" fill="#9c4a28"/>
  <rect x="338" y="208" width="78" height="6" fill="#f3efe6"/>
  <rect x="148" y="358" width="150" height="120" fill="#9c4a28"/>
  <rect x="318" y="288" width="88" height="190" fill="#ddd4c6"/>
  <rect x="420" y="288" width="88" height="190" fill="#cbbba8"/>
  <rect x="148" y="498" width="360" height="150" fill="#1c1915"/>
  <rect x="172" y="530" width="120" height="86" fill="#f3efe6"/>
  <rect x="308" y="530" width="80" height="86" fill="#9c4a28"/>
  <rect x="404" y="530" width="80" height="86" fill="#6e675f"/>
  <rect x="520" y="220" width="200" height="280" fill="#9c4a28"/>
  <rect x="548" y="260" width="144" height="180" fill="#f3efe6"/>
  <rect x="572" y="300" width="96" height="8" fill="#1c1915"/>
  <rect x="572" y="322" width="64" height="8" fill="#9c4a28"/>
  <circle cx="620" cy="760" r="108" stroke="#f3efe6" stroke-width="10"/>
  <circle cx="620" cy="760" r="64" stroke="#9c4a28" stroke-width="10"/>
  <rect x="96" y="780" width="360" height="8" fill="#9c4a28"/>
  <rect x="96" y="812" width="240" height="8" fill="#6e675f"/>
  <rect x="96" y="844" width="180" height="8" fill="#f3efe6"/>
</svg>
